<svg xmlns="http://www.w3.org/2000/svg" width="1714" height="404" viewBox="0 0 16644602 3917889" shape-rendering="geometricPrecision" text-rendering="geometricPrecision" image-rendering="optimizeQuality" fill-rule="evenodd" clip-rule="evenodd"><defs><style><![CDATA[
    .fil0 {fill:none}
    .fil1 {fill:black;fill-rule:nonzero}
   ]]></style></defs><g id="Layer_x0020_1"><g id="_2732414086320"><path class="fil0" d="M-3 0h16644605v3917889H-3z"/><path class="fil1" d="M5678764 2797699l-729669-1667820h247665l515946 1180965 526852-1180965h244030l-744221 1667820h-60603zm1842061-12120V1129879h996335v210902h-761180v501796h739358v213333h-739358v516348h785421v213321H7520825zm3638771-392711v267055c-96965 50512-195948 88893-296560 115152-100600 26259-200397 39596-298979 39596-94947 0-185445-12522-271505-37176-86060-25044-167269-61808-244029-110703-122824-80395-218585-183426-286859-308268-68286-125254-102619-261001-102619-408065 0-111115 22625-218986 67472-323634 44848-104235 109086-195948 191912-273924 88480-83640 187463-146261 296950-187474 109900-41614 231508-62220 364846-62220 93330 0 185445 10504 277158 31924 91312 21409 187474 54950 287673 101002v257365c-105049-56968-203631-98983-296159-126458-92114-27073-181809-40811-268672-40811-193529 0-353127 60202-479585 180606-126458 120403-189492 271103-189492 452511 0 179390 62220 328874 186660 449278 124440 120403 280403 180594 468267 180594 96564 0 193941-16157 292523-48483 98984-32314 199182-81611 300998-147867zm1628729 392711V1345631h-608463v-215752h1452068v215752h-608462v1439948h-235143zm2343869 0v-828664l-639985-827036h280804l483209 628255 494939-628255h285242l-664227 839157v816543h-239982zM3343334 1775323l268076-154770-268076-157327v312097zm-1171149-136343v812576l312660-180514c1628-1158 3360-2167 5206-3004l789722-455940V999522l-1107588 639458zm0 885644v812564l299266-172773v-812565l-299266 172774zm-13336 893349c-5206 3704-11570 5894-18450 5894-6869 0-13233-2190-18439-5894L956085 2744848c-10974-5011-18611-16077-18611-28931v-867446l-344216-198734c-10974-5012-18611-16077-18611-28932V735150c0-12854 7637-23920 18611-28931l359903-207794c9495-5584 21639-6054 31856-183l1155370 667048 792440-457569c10802-6249 23759-5424 33495 1067l358401 206922c10974 5011 18611 16077 18611 28931v445150l345662 202863c5172 2683 9678 6834 12820 12247 2901 5011 4277 10492 4266 15893h80v885643c0 12603-7327 23485-17946 28633l-1169096 674972c-619 367-1250 688-1892 1009l-358379 206922zm-50225-80785v-812564l-344217-198723c-1846-849-3589-1858-5229-3028l-758142-437707v812564l1107588 639458zm0-885632v-812576l-299267-172773v812576l299267 172773zm1533977-775801l-313337 180904c-1444 975-2958 1823-4541 2557l-789710 455929v812506l1107588-639469v-812427zM982437 1801353c1846 838 3577 1847 5217 3016l758142 437708v-812496L638208 790112v812507l344229 198734zm1094664-599530L969261 562216 669777 735116l1107863 639630 299461-172923zm1171160-257182l-299484-172911-1107851 639630 299473 172900 1107862-639619z"/></g></g></svg>