<svg xmlns="http://www.w3.org/2000/svg" width="1714" height="404" viewBox="0 0 16644602 3917889" shape-rendering="geometricPrecision" text-rendering="geometricPrecision" image-rendering="optimizeQuality" fill-rule="evenodd" clip-rule="evenodd"><defs><style><![CDATA[
    .fil0 {fill:none}
    .fil10 {fill:#438036}
    .fil5 {fill:#59B5BD}
    .fil8 {fill:#6FB061}
    .fil7 {fill:#7DE6F0}
    .fil4 {fill:#8A4484}
    .fil9 {fill:#94D985}
    .fil6 {fill:#B54E31}
    .fil2 {fill:#C27ABC}
    .fil3 {fill:#FA8564}
    .fil1 {fill:black;fill-rule:nonzero}
   ]]></style></defs><g id="Layer_x0020_1"><g id="_2732409426960"><path class="fil0" d="M-3 0h16644605v3917889H-3z"/><path class="fil1" d="M5678764 2797699l-729669-1667820h247665l515946 1180965 526852-1180965h244030l-744221 1667820h-60603zm1842061-12120V1129879h996335v210902h-761180v501796h739358v213333h-739358v516348h785421v213321H7520825zm3638771-392711v267055c-96965 50512-195948 88893-296560 115152-100600 26259-200397 39596-298979 39596-94947 0-185445-12522-271505-37176-86060-25044-167269-61808-244029-110703-122824-80395-218585-183426-286859-308268-68286-125254-102619-261001-102619-408065 0-111115 22625-218986 67472-323634 44848-104235 109086-195948 191912-273924 88480-83640 187463-146261 296950-187474 109900-41614 231508-62220 364846-62220 93330 0 185445 10504 277158 31924 91312 21409 187474 54950 287673 101002v257365c-105049-56968-203631-98983-296159-126458-92114-27073-181809-40811-268672-40811-193529 0-353127 60202-479585 180606-126458 120403-189492 271103-189492 452511 0 179390 62220 328874 186660 449278 124440 120403 280403 180594 468267 180594 96564 0 193941-16157 292523-48483 98984-32314 199182-81611 300998-147867zm1628729 392711V1345631h-608463v-215752h1452068v215752h-608462v1439948h-235143zm2343869 0v-828664l-639985-827036h280804l483209 628255 494939-628255h285242l-664227 839157v816543h-239982z"/><path class="fil2" d="M3311548 1407909l362828 212942v885644l-1171138 676175-362828-209479v-885644z"/><path class="fil3" d="M969261 1830342v885644l1171149 676152 362828-209479v-885644l-1171149-676152z"/><path class="fil4" d="M3674376 1620863v885632l-1171138 676164v-885644z"/><path class="fil5" d="M606433 735208v885655l1171149 676152 362828-209468v-885655L969261 525728z"/><path class="fil6" d="M2503238 2297015l-362828 209480v885655l362828-209480z"/><path class="fil7" d="M969261 525740L606433 735219l1171138 676153 362839-209480z"/><path class="fil8" d="M1777582 1411372l1171138-676153 362828 209480v885643l-1171138 676153-362828-209480z"/><path class="fil9" d="M2948720 735219l362828 209480-1171138 676164-362839-209491z"/><path class="fil10" d="M3311548 944699v885643l-1171138 676153v-885632z"/></g></g></svg>