<svg xmlns="http://www.w3.org/2000/svg" width="600" height="600" viewBox="0 0 2141264 2141264" shape-rendering="geometricPrecision" text-rendering="geometricPrecision" image-rendering="optimizeQuality" fill-rule="evenodd" clip-rule="evenodd"><defs><style><![CDATA[
    .fil0 {fill:none}
    .fil9 {fill:#438036}
    .fil4 {fill:#59B5BD}
    .fil7 {fill:#6FB061}
    .fil6 {fill:#7DE6F0}
    .fil3 {fill:#8A4484}
    .fil8 {fill:#94D985}
    .fil5 {fill:#B54E31}
    .fil1 {fill:#C27ABC}
    .fil2 {fill:#FA8564}
   ]]></style></defs><g id="Layer_x0020_1"><g id="_2732409421776"><path class="fil0" d="M0 0h2141263v2141264H0z"/><path class="fil1" d="M1847237 705239l240597 141205v587284l-776605 448376-240597-138908v-587284z"/><path class="fil2" d="M294028 985357v587279l776604 448372 240597-138908v-587280L534625 846449z"/><path class="fil3" d="M2087834 846444v587284l-776605 448372v-587280z"/><path class="fil4" d="M53430 259160v587289l776605 448371 240597-138908V568624L294028 120252z"/><path class="fil5" d="M1311229 1294820l-240597 138908v587284l240597-138908z"/><path class="fil6" d="M294028 120252L53430 259160l776605 448376 240597-138912z"/><path class="fil7" d="M830035 707536l776600-448371 240602 138908v587284l-776605 448371-240597-138908z"/><path class="fil8" d="M1606635 259165l240602 138908-776605 448371-240597-138908z"/><path class="fil9" d="M1847237 398073v587284l-776605 448371V846444z"/></g></g></svg>