<svg xmlns="http://www.w3.org/2000/svg" width="600" height="600" viewBox="0 0 9769607 9769607" shape-rendering="geometricPrecision" text-rendering="geometricPrecision" image-rendering="optimizeQuality" fill-rule="evenodd" clip-rule="evenodd"><defs><style><![CDATA[
    .fil0 {fill:none}
    .fil1 {fill:black;fill-rule:nonzero}
   ]]></style></defs><g id="Layer_x0020_1"><g id="_2732414064304"><path class="fil0" d="M0 0h9769601v9769606H0z"/><path class="fil1" d="M8524251 4329243l811050-468268-811050-475999v944267zm-3543290-412496v2458421l945940-546136c4923-3500 10174-6558 15751-9097l2389284-1379437V1982076L4980961 3916747zm0 2679507v2458402l905419-522732V6073503l-905419 522751zm-40367 2702796c-15732 11231-34982 17847-55791 17847-20808 0-40059-6616-55790-17847L1301665 7262529c-33212-15154-56309-48636-56309-87522V4550540L203931 3949267c-33213-15154-56310-48636-56310-87522V1182219c0-38887 23097-72369 56310-87523l1088888-628678c28713-16905 65445-18347 96388-577l3495539 2018135 2397515-1384341c32674-18924 71906-16405 101350 3211l1084330 626044c33213 15154 56310 48636 56310 87522v1346821l1045790 613755c15674 8115 29290 20654 38790 37059 8789 15154 12943 31732 12924 48078h230v2679507c0 38098-22154 71022-54290 86600L6030617 8669968c-1885 1096-3808 2096-5731 3058l-1084292 626024zm-151948-244394V6596254l-1041406-601254c-5596-2558-10885-5616-15846-9154L1437671 4661564v2458421l3350975 1934671zm0-2679488V3916747l-905420-522732v2458422l905420 522731zm4641024-2347167l-947978 547329c-4366 2942-8943 5519-13751 7712L6078695 5962479v2458210l3350975-1934709V4028001zm-8048290 379995c5577 2539 10847 5597 15789 9116l2293742 1324282V3283203L339936 1348494v2458229l1041444 601273zm3311916-1813858L1341513 658987l-906073 523116 3351821 1935190 906035-523155zm3543328-778126l-906092-523116-3351802 1935170 906073 523117 3351821-1935171z"/></g></g></svg>