<svg xmlns="http://www.w3.org/2000/svg" width="1028" height="897" viewBox="0 0 49899452 43548519" shape-rendering="geometricPrecision" text-rendering="geometricPrecision" image-rendering="optimizeQuality" fill-rule="evenodd" clip-rule="evenodd"><defs><style><![CDATA[
    .fil0 {fill:none}
    .fil1 {fill:black;fill-rule:nonzero}
   ]]></style></defs><g id="Layer_x0020_1"><g id="_2732308461472"><path class="fil0" d="M27 1h49899426v43548520H27z"/><path class="fil1" d="M6502106 40204302l-2796186-6391250h949133l1977122 4525558 2018929-4525558h935197l-2851930 6391250zm7058970-46453v-6344797h3818038v808168h-2916964v1922984h2833348v817458h-2833348v1978670h3009870v817517zm13944112-1504907v1023401c-371567 193554-750933 340598-1136436 441246-385503 100649-767967 151747-1145727 151747-363825 0-710674-48002-1040434-142456-329759-96003-640994-236911-935139-424214-470667-308138-837646-702932-1099274-1181341-261686-479957-393303-1000174-393303-1563747 0-425762 86713-839194 258589-1240181 171876-399439 418020-750933 735449-1049724 339050-320469 718359-560476 1137927-718416 421175-159432 887196-238402 1398122-238402 357631 0 710674 40259 1062112 122326 349888 82010 718416 210530 1102370 387052v986238c-402535-218329-780353-379309-1134888-484603-352985-103745-696738-156392-1029594-156392-741643 0-1353217 230717-1837820 692093-484602 461376-726101 1038885-726101 1734075 0 687448 238402 1260254 715262 1721687 476861 461376 1074499 692036 1794464 692036 370018 0 743191-61938 1120952-185755 379309-123875 763321-312784 1153469-566670zm6241453 1504907v-5518048h-2331713v-826749h5564501v826749h-2331714v5518048zm8981896 0v-3175496l-2452491-3169301h1076047l1851756 2407529 1896660-2407529h1093080l-2545397 3215754v3129043zm-6925747-25315989l2418598-1396401-2418598-1419456v2815857zm-10566288-1230088v7331150l2820846-1628609c14682-10438 30338-19556 46969-27126l7124979-4113560V7842477l-9992794 5769295zm0 7990439v7331093l2700011-1558815v-7331150l-2700011 1558872zm-120377 8059889c-46911 33492-104318 53220-166370 53220s-119459-19728-166371-53220l-10518746-6073018c-99042-45191-167919-145037-167919-260997v-7826305l-3105586-1793030c-99043-45191-167919-145036-167919-260997V5457257c0-115961 68876-215806 167919-260997l3247125-1874753c85622-50410 195160-54711 287435-1721l10423890 6018192 7149524-4128184c97436-56432 214429-48919 302231 9578l3233533 1866896c99043 45191 167919 145036 167919 260997v4016295l3118605 1830250c46740 24201 87343 61593 115674 110512 26208 45192 38596 94627 38539 143374h688v7990438c0 113610-66067 211792-161898 258245l-10547764 6089764c-5620 3269-11355 6251-17090 9118l-3233419 1866839zm-453117-728796v-7331093l-3105529-1792972c-16689-7628-32460-16746-47256-27299l-6840009-3949081v7331149l9992794 5769296zm0-7990382v-7331150l-2700012-1558814v7331149l2700012 1558815zm13839793-6999383l-2826925 1632165c-13018 8774-26668 16459-41005 22997l-7124864 4113560v7330519l9992794-5769410v-7329831zm-24000449 1133167c16631 7570 32345 16689 47084 27184l6840066 3949082v-7330462l-9992794-5769410v7330576l3105644 1793030zm9876317-5409026l-9995203-5770729-2701961 1559962 9995318 5770844 2701846-1560077zm10566403-2320415l-2702018-1559962-9995260 5770786 2701961 1559962 9995317-5770786z"/></g></g></svg>